<mxfile host="app.diagrams.net" agent="Mozilla/5.0 (Windows NT 10.0; Win64; x64) AppleWebKit/537.36 (KHTML, like Gecko) Chrome/131.0.0.0 Safari/537.36" version="26.0.6">
  <diagram name="Page-1" id="ZzFytBZyWr6_bBRtEd0y">
    <mxGraphModel dx="1588" dy="840" grid="1" gridSize="10" guides="1" tooltips="1" connect="1" arrows="1" fold="1" page="1" pageScale="1" pageWidth="850" pageHeight="1100" math="0" shadow="0">
      <root>
        <mxCell id="0" />
        <mxCell id="1" parent="0" />
        <mxCell id="6WohnyHXYykhLWwT5x3m-1" value="Job Portal Management System (Root)" style="whiteSpace=wrap;strokeWidth=2;fillColor=#dae8fc;strokeColor=#6c8ebf;fontSize=17;spacing=12;" vertex="1" parent="1">
          <mxGeometry x="1619" y="20" width="260" height="78" as="geometry" />
        </mxCell>
        <mxCell id="6WohnyHXYykhLWwT5x3m-69" style="rounded=0;orthogonalLoop=1;jettySize=auto;html=1;exitX=0.75;exitY=1;exitDx=0;exitDy=0;entryX=0.5;entryY=0;entryDx=0;entryDy=0;" edge="1" parent="1" source="6WohnyHXYykhLWwT5x3m-2" target="6WohnyHXYykhLWwT5x3m-8">
          <mxGeometry relative="1" as="geometry" />
        </mxCell>
        <mxCell id="6WohnyHXYykhLWwT5x3m-2" value="User Management" style="whiteSpace=wrap;strokeWidth=3;fillColor=#d5e8d4;strokeColor=#82b366;fontSize=15;spacing=2;spacingBottom=10;spacingRight=10;spacingLeft=10;spacingTop=10;" vertex="1" parent="1">
          <mxGeometry x="1079" y="530" width="187" height="53" as="geometry" />
        </mxCell>
        <mxCell id="6WohnyHXYykhLWwT5x3m-3" value="Job Management" style="whiteSpace=wrap;strokeWidth=3;fillColor=#d5e8d4;strokeColor=#82b366;fontSize=15;spacing=2;spacingBottom=10;spacingRight=10;spacingLeft=10;spacingTop=10;" vertex="1" parent="1">
          <mxGeometry x="1656" y="148" width="181" height="54" as="geometry" />
        </mxCell>
        <mxCell id="6WohnyHXYykhLWwT5x3m-4" value="Application Management" style="whiteSpace=wrap;strokeWidth=3;fillColor=#d5e8d4;strokeColor=#82b366;fontSize=15;spacing=2;spacingBottom=10;spacingRight=10;spacingLeft=10;spacingTop=10;" vertex="1" parent="1">
          <mxGeometry x="2332" y="530" width="237" height="55" as="geometry" />
        </mxCell>
        <mxCell id="6WohnyHXYykhLWwT5x3m-62" style="rounded=0;orthogonalLoop=1;jettySize=auto;html=1;exitX=0;exitY=1;exitDx=0;exitDy=0;entryX=0.5;entryY=0;entryDx=0;entryDy=0;" edge="1" parent="1" source="6WohnyHXYykhLWwT5x3m-5" target="6WohnyHXYykhLWwT5x3m-9">
          <mxGeometry relative="1" as="geometry" />
        </mxCell>
        <mxCell id="6WohnyHXYykhLWwT5x3m-63" style="rounded=0;orthogonalLoop=1;jettySize=auto;html=1;exitX=0.5;exitY=1;exitDx=0;exitDy=0;entryX=0.5;entryY=0;entryDx=0;entryDy=0;" edge="1" parent="1" source="6WohnyHXYykhLWwT5x3m-5" target="6WohnyHXYykhLWwT5x3m-10">
          <mxGeometry relative="1" as="geometry">
            <mxPoint x="715" y="744" as="targetPoint" />
          </mxGeometry>
        </mxCell>
        <mxCell id="6WohnyHXYykhLWwT5x3m-64" style="rounded=0;orthogonalLoop=1;jettySize=auto;html=1;exitX=0.5;exitY=1;exitDx=0;exitDy=0;entryX=0.467;entryY=0.027;entryDx=0;entryDy=0;entryPerimeter=0;" edge="1" parent="1" source="6WohnyHXYykhLWwT5x3m-5" target="6WohnyHXYykhLWwT5x3m-11">
          <mxGeometry relative="1" as="geometry">
            <mxPoint x="900.5" y="744" as="targetPoint" />
          </mxGeometry>
        </mxCell>
        <mxCell id="6WohnyHXYykhLWwT5x3m-5" value="Register User" style="whiteSpace=wrap;strokeWidth=2;fillColor=#ffe6cc;strokeColor=#d79b00;fontSize=14;spacing=8;" vertex="1" parent="1">
          <mxGeometry x="870" y="639" width="154" height="54" as="geometry" />
        </mxCell>
        <mxCell id="6WohnyHXYykhLWwT5x3m-6" value="Login" style="whiteSpace=wrap;strokeWidth=2;fillColor=#ffe6cc;strokeColor=#d79b00;fontSize=14;spacing=8;" vertex="1" parent="1">
          <mxGeometry x="1226" y="639" width="98" height="54" as="geometry" />
        </mxCell>
        <mxCell id="6WohnyHXYykhLWwT5x3m-7" value="Update Profile" style="whiteSpace=wrap;strokeWidth=2;fillColor=#ffe6cc;strokeColor=#d79b00;fontSize=14;spacing=8;" vertex="1" parent="1">
          <mxGeometry x="1040" y="639" width="163" height="54" as="geometry" />
        </mxCell>
        <mxCell id="6WohnyHXYykhLWwT5x3m-8" value="Manage User Roles" style="whiteSpace=wrap;strokeWidth=2;fillColor=#ffe6cc;strokeColor=#d79b00;fontSize=14;spacing=8;" vertex="1" parent="1">
          <mxGeometry x="1360" y="639" width="192" height="54" as="geometry" />
        </mxCell>
        <mxCell id="6WohnyHXYykhLWwT5x3m-9" value="Validate Input" style="whiteSpace=wrap;strokeWidth=2;fillColor=#e1d5e7;strokeColor=#9673a6;" vertex="1" parent="1">
          <mxGeometry x="632" y="739" width="160" height="54" as="geometry" />
        </mxCell>
        <mxCell id="6WohnyHXYykhLWwT5x3m-10" value="Encrypt Data" style="whiteSpace=wrap;strokeWidth=2;fillColor=#e1d5e7;strokeColor=#9673a6;" vertex="1" parent="1">
          <mxGeometry x="812" y="739" width="152" height="54" as="geometry" />
        </mxCell>
        <mxCell id="6WohnyHXYykhLWwT5x3m-11" value="Save to Database" style="whiteSpace=wrap;strokeWidth=2;fillColor=#e1d5e7;strokeColor=#9673a6;" vertex="1" parent="1">
          <mxGeometry x="982" y="739" width="183" height="54" as="geometry" />
        </mxCell>
        <mxCell id="6WohnyHXYykhLWwT5x3m-12" value="Authenticate" style="whiteSpace=wrap;strokeWidth=2;fillColor=#e1d5e7;strokeColor=#9673a6;" vertex="1" parent="1">
          <mxGeometry x="1243.5" y="739" width="153" height="54" as="geometry" />
        </mxCell>
        <mxCell id="6WohnyHXYykhLWwT5x3m-13" value="Session Management" style="whiteSpace=wrap;strokeWidth=2;fillColor=#e1d5e7;strokeColor=#9673a6;" vertex="1" parent="1">
          <mxGeometry x="1412" y="739" width="207" height="54" as="geometry" />
        </mxCell>
        <mxCell id="6WohnyHXYykhLWwT5x3m-14" value="Add Job" style="whiteSpace=wrap;strokeWidth=2;fillColor=#ffe6cc;strokeColor=#d79b00;fontSize=14;spacing=8;" vertex="1" parent="1">
          <mxGeometry x="1470" y="252" width="117" height="54" as="geometry" />
        </mxCell>
        <mxCell id="6WohnyHXYykhLWwT5x3m-65" style="rounded=0;orthogonalLoop=1;jettySize=auto;html=1;exitX=0.5;exitY=1;exitDx=0;exitDy=0;entryX=0.5;entryY=0;entryDx=0;entryDy=0;" edge="1" parent="1" source="6WohnyHXYykhLWwT5x3m-15" target="6WohnyHXYykhLWwT5x3m-19">
          <mxGeometry relative="1" as="geometry" />
        </mxCell>
        <mxCell id="6WohnyHXYykhLWwT5x3m-15" value="Remove Job" style="whiteSpace=wrap;strokeWidth=2;fillColor=#ffe6cc;strokeColor=#d79b00;fontSize=14;spacing=8;" vertex="1" parent="1">
          <mxGeometry x="1619" y="252" width="146" height="54" as="geometry" />
        </mxCell>
        <mxCell id="6WohnyHXYykhLWwT5x3m-66" style="rounded=0;orthogonalLoop=1;jettySize=auto;html=1;exitX=0.5;exitY=1;exitDx=0;exitDy=0;entryX=0.5;entryY=0;entryDx=0;entryDy=0;" edge="1" parent="1" source="6WohnyHXYykhLWwT5x3m-16" target="6WohnyHXYykhLWwT5x3m-19">
          <mxGeometry relative="1" as="geometry">
            <mxPoint x="1630" y="400" as="targetPoint" />
          </mxGeometry>
        </mxCell>
        <mxCell id="6WohnyHXYykhLWwT5x3m-16" value="Update Job" style="whiteSpace=wrap;strokeWidth=2;fillColor=#ffe6cc;strokeColor=#d79b00;fontSize=14;spacing=8;" vertex="1" parent="1">
          <mxGeometry x="1800" y="252" width="142" height="54" as="geometry" />
        </mxCell>
        <mxCell id="6WohnyHXYykhLWwT5x3m-17" value="Search Job" style="whiteSpace=wrap;strokeWidth=2;fillColor=#ffe6cc;strokeColor=#d79b00;fontSize=14;spacing=8;" vertex="1" parent="1">
          <mxGeometry x="1966" y="252" width="138" height="54" as="geometry" />
        </mxCell>
        <mxCell id="6WohnyHXYykhLWwT5x3m-18" value="Validate Job Details" style="whiteSpace=wrap;strokeWidth=2;fillColor=#e1d5e7;strokeColor=#9673a6;" vertex="1" parent="1">
          <mxGeometry x="1327" y="400" width="202" height="54" as="geometry" />
        </mxCell>
        <mxCell id="6WohnyHXYykhLWwT5x3m-19" value="Update Database" style="whiteSpace=wrap;strokeWidth=2;fillColor=#e1d5e7;strokeColor=#9673a6;" vertex="1" parent="1">
          <mxGeometry x="1545.5" y="400" width="213" height="54" as="geometry" />
        </mxCell>
        <mxCell id="6WohnyHXYykhLWwT5x3m-20" value="Filter by Keywords" style="whiteSpace=wrap;strokeWidth=2;fillColor=#e1d5e7;strokeColor=#9673a6;" vertex="1" parent="1">
          <mxGeometry x="1860" y="400" width="193" height="54" as="geometry" />
        </mxCell>
        <mxCell id="6WohnyHXYykhLWwT5x3m-21" value="Sort by Criteria" style="whiteSpace=wrap;strokeWidth=2;fillColor=#e1d5e7;strokeColor=#9673a6;" vertex="1" parent="1">
          <mxGeometry x="2060" y="400" width="170" height="54" as="geometry" />
        </mxCell>
        <mxCell id="6WohnyHXYykhLWwT5x3m-22" value="Submit Application" style="whiteSpace=wrap;strokeWidth=2;fillColor=#ffe6cc;strokeColor=#d79b00;fontSize=14;spacing=8;" vertex="1" parent="1">
          <mxGeometry x="1960" y="638" width="195" height="55" as="geometry" />
        </mxCell>
        <mxCell id="6WohnyHXYykhLWwT5x3m-68" style="rounded=0;orthogonalLoop=1;jettySize=auto;html=1;exitX=0.5;exitY=1;exitDx=0;exitDy=0;entryX=0.5;entryY=0;entryDx=0;entryDy=0;" edge="1" parent="1" source="6WohnyHXYykhLWwT5x3m-23" target="6WohnyHXYykhLWwT5x3m-27">
          <mxGeometry relative="1" as="geometry">
            <mxPoint x="2184" y="740" as="targetPoint" />
          </mxGeometry>
        </mxCell>
        <mxCell id="6WohnyHXYykhLWwT5x3m-23" value="Update Application" style="whiteSpace=wrap;strokeWidth=2;fillColor=#ffe6cc;strokeColor=#d79b00;fontSize=14;spacing=8;" vertex="1" parent="1">
          <mxGeometry x="2230" y="638" width="197" height="55" as="geometry" />
        </mxCell>
        <mxCell id="6WohnyHXYykhLWwT5x3m-24" value="Shortlist Candidates" style="whiteSpace=wrap;strokeWidth=2;fillColor=#ffe6cc;strokeColor=#d79b00;fontSize=14;spacing=8;" vertex="1" parent="1">
          <mxGeometry x="2473.5" y="634" width="204" height="55" as="geometry" />
        </mxCell>
        <mxCell id="6WohnyHXYykhLWwT5x3m-25" value="Generate Reports" style="whiteSpace=wrap;strokeWidth=2;fillColor=#ffe6cc;strokeColor=#d79b00;fontSize=14;spacing=8;" vertex="1" parent="1">
          <mxGeometry x="2710" y="634" width="185" height="55" as="geometry" />
        </mxCell>
        <mxCell id="6WohnyHXYykhLWwT5x3m-26" value="Validate Application" style="whiteSpace=wrap;strokeWidth=2;fillColor=#e1d5e7;strokeColor=#9673a6;" vertex="1" parent="1">
          <mxGeometry x="1790" y="737" width="203" height="55" as="geometry" />
        </mxCell>
        <mxCell id="6WohnyHXYykhLWwT5x3m-27" value="Update Database" style="whiteSpace=wrap;strokeWidth=2;fillColor=#e1d5e7;strokeColor=#9673a6;" vertex="1" parent="1">
          <mxGeometry x="2015" y="739" width="260" height="56" as="geometry" />
        </mxCell>
        <mxCell id="6WohnyHXYykhLWwT5x3m-28" value="Filter Applications" style="whiteSpace=wrap;strokeWidth=2;fillColor=#e1d5e7;strokeColor=#9673a6;" vertex="1" parent="1">
          <mxGeometry x="2300" y="739" width="191" height="55" as="geometry" />
        </mxCell>
        <mxCell id="6WohnyHXYykhLWwT5x3m-29" value="Notify Candidates" style="whiteSpace=wrap;strokeWidth=2;fillColor=#e1d5e7;strokeColor=#9673a6;" vertex="1" parent="1">
          <mxGeometry x="2510" y="738" width="187" height="55" as="geometry" />
        </mxCell>
        <mxCell id="6WohnyHXYykhLWwT5x3m-30" value="Compile Data" style="whiteSpace=wrap;strokeWidth=2;fillColor=#e1d5e7;strokeColor=#9673a6;" vertex="1" parent="1">
          <mxGeometry x="2720" y="740" width="156" height="55" as="geometry" />
        </mxCell>
        <mxCell id="6WohnyHXYykhLWwT5x3m-31" value="Export to PDF" style="whiteSpace=wrap;strokeWidth=2;fillColor=#e1d5e7;strokeColor=#9673a6;" vertex="1" parent="1">
          <mxGeometry x="2895" y="740" width="158" height="55" as="geometry" />
        </mxCell>
        <mxCell id="6WohnyHXYykhLWwT5x3m-32" value="" style="startArrow=none;endArrow=block;exitX=0;exitY=0.63;entryX=0.5;entryY=0;rounded=0;" edge="1" parent="1" source="6WohnyHXYykhLWwT5x3m-1" target="6WohnyHXYykhLWwT5x3m-2">
          <mxGeometry relative="1" as="geometry" />
        </mxCell>
        <mxCell id="6WohnyHXYykhLWwT5x3m-33" value="" style="curved=1;startArrow=none;endArrow=block;exitX=0.5;exitY=1;entryX=0.5;entryY=0;rounded=0;" edge="1" parent="1" source="6WohnyHXYykhLWwT5x3m-1" target="6WohnyHXYykhLWwT5x3m-3">
          <mxGeometry relative="1" as="geometry">
            <Array as="points" />
          </mxGeometry>
        </mxCell>
        <mxCell id="6WohnyHXYykhLWwT5x3m-34" value="" style="startArrow=none;endArrow=block;exitX=1;exitY=0.59;entryX=0.5;entryY=0;rounded=0;" edge="1" parent="1" source="6WohnyHXYykhLWwT5x3m-1" target="6WohnyHXYykhLWwT5x3m-4">
          <mxGeometry relative="1" as="geometry" />
        </mxCell>
        <mxCell id="6WohnyHXYykhLWwT5x3m-35" value="" style="curved=0;startArrow=none;endArrow=block;exitX=0;exitY=1;entryX=0.5;entryY=0;rounded=0;exitDx=0;exitDy=0;" edge="1" parent="1" source="6WohnyHXYykhLWwT5x3m-2" target="6WohnyHXYykhLWwT5x3m-5">
          <mxGeometry relative="1" as="geometry">
            <Array as="points" />
          </mxGeometry>
        </mxCell>
        <mxCell id="6WohnyHXYykhLWwT5x3m-36" value="" style="startArrow=none;endArrow=block;exitX=0.5;exitY=1;entryX=0.5;entryY=0;rounded=0;exitDx=0;exitDy=0;" edge="1" parent="1" source="6WohnyHXYykhLWwT5x3m-2" target="6WohnyHXYykhLWwT5x3m-6">
          <mxGeometry relative="1" as="geometry" />
        </mxCell>
        <mxCell id="6WohnyHXYykhLWwT5x3m-37" value="" style="startArrow=none;endArrow=block;exitX=0.303;exitY=0.99;entryX=0.5;entryY=0;rounded=0;exitDx=0;exitDy=0;exitPerimeter=0;" edge="1" parent="1" source="6WohnyHXYykhLWwT5x3m-2" target="6WohnyHXYykhLWwT5x3m-7">
          <mxGeometry relative="1" as="geometry" />
        </mxCell>
        <mxCell id="6WohnyHXYykhLWwT5x3m-42" value="" style="startArrow=none;endArrow=block;exitX=0.5;exitY=1;entryX=0.5;entryY=0.09;rounded=0;exitDx=0;exitDy=0;entryDx=0;entryDy=0;entryPerimeter=0;" edge="1" parent="1" source="6WohnyHXYykhLWwT5x3m-6" target="6WohnyHXYykhLWwT5x3m-12">
          <mxGeometry relative="1" as="geometry">
            <mxPoint x="1147.0000000000005" y="744" as="targetPoint" />
          </mxGeometry>
        </mxCell>
        <mxCell id="6WohnyHXYykhLWwT5x3m-43" value="" style="startArrow=none;endArrow=block;exitX=0.75;exitY=1;entryX=0.5;entryY=0;rounded=0;exitDx=0;exitDy=0;entryDx=0;entryDy=0;" edge="1" parent="1" source="6WohnyHXYykhLWwT5x3m-6" target="6WohnyHXYykhLWwT5x3m-13">
          <mxGeometry relative="1" as="geometry">
            <mxPoint x="1342.4999999999995" y="744" as="targetPoint" />
          </mxGeometry>
        </mxCell>
        <mxCell id="6WohnyHXYykhLWwT5x3m-44" value="" style="startArrow=none;endArrow=block;exitX=0;exitY=0.81;entryX=0.5;entryY=0;rounded=0;" edge="1" parent="1" source="6WohnyHXYykhLWwT5x3m-3" target="6WohnyHXYykhLWwT5x3m-14">
          <mxGeometry relative="1" as="geometry" />
        </mxCell>
        <mxCell id="6WohnyHXYykhLWwT5x3m-45" value="" style="startArrow=none;endArrow=block;exitX=0.22;exitY=1;entryX=0.5;entryY=0;rounded=0;" edge="1" parent="1" source="6WohnyHXYykhLWwT5x3m-3" target="6WohnyHXYykhLWwT5x3m-15">
          <mxGeometry relative="1" as="geometry" />
        </mxCell>
        <mxCell id="6WohnyHXYykhLWwT5x3m-46" value="" style="startArrow=none;endArrow=block;exitX=0.78;exitY=1;entryX=0.5;entryY=0;rounded=0;" edge="1" parent="1" source="6WohnyHXYykhLWwT5x3m-3" target="6WohnyHXYykhLWwT5x3m-16">
          <mxGeometry relative="1" as="geometry" />
        </mxCell>
        <mxCell id="6WohnyHXYykhLWwT5x3m-47" value="" style="startArrow=none;endArrow=block;exitX=1;exitY=0.8;entryX=0.5;entryY=0;rounded=0;" edge="1" parent="1" source="6WohnyHXYykhLWwT5x3m-3" target="6WohnyHXYykhLWwT5x3m-17">
          <mxGeometry relative="1" as="geometry" />
        </mxCell>
        <mxCell id="6WohnyHXYykhLWwT5x3m-48" value="" style="startArrow=none;endArrow=block;exitX=0.5;exitY=1;entryX=0.5;entryY=0;rounded=0;exitDx=0;exitDy=0;" edge="1" parent="1" source="6WohnyHXYykhLWwT5x3m-14" target="6WohnyHXYykhLWwT5x3m-18">
          <mxGeometry relative="1" as="geometry" />
        </mxCell>
        <mxCell id="6WohnyHXYykhLWwT5x3m-49" value="" style="startArrow=none;endArrow=block;exitX=0.5;exitY=1;entryX=0.5;entryY=0;rounded=0;exitDx=0;exitDy=0;" edge="1" parent="1" source="6WohnyHXYykhLWwT5x3m-14" target="6WohnyHXYykhLWwT5x3m-19">
          <mxGeometry relative="1" as="geometry" />
        </mxCell>
        <mxCell id="6WohnyHXYykhLWwT5x3m-50" value="" style="startArrow=none;endArrow=block;exitX=0.5;exitY=1;entryX=0.5;entryY=0;rounded=0;exitDx=0;exitDy=0;" edge="1" parent="1" source="6WohnyHXYykhLWwT5x3m-17" target="6WohnyHXYykhLWwT5x3m-20">
          <mxGeometry relative="1" as="geometry" />
        </mxCell>
        <mxCell id="6WohnyHXYykhLWwT5x3m-51" value="" style="startArrow=none;endArrow=block;exitX=0.5;exitY=1;entryX=0.5;entryY=0;rounded=0;exitDx=0;exitDy=0;" edge="1" parent="1" source="6WohnyHXYykhLWwT5x3m-17" target="6WohnyHXYykhLWwT5x3m-21">
          <mxGeometry relative="1" as="geometry">
            <Array as="points" />
          </mxGeometry>
        </mxCell>
        <mxCell id="6WohnyHXYykhLWwT5x3m-52" value="" style="startArrow=none;endArrow=block;exitX=0;exitY=0.78;entryX=0.5;entryY=0;rounded=0;" edge="1" parent="1" source="6WohnyHXYykhLWwT5x3m-4" target="6WohnyHXYykhLWwT5x3m-22">
          <mxGeometry relative="1" as="geometry" />
        </mxCell>
        <mxCell id="6WohnyHXYykhLWwT5x3m-53" value="" style="startArrow=none;endArrow=block;exitX=0.21;exitY=1;entryX=0.5;entryY=0;rounded=0;" edge="1" parent="1" source="6WohnyHXYykhLWwT5x3m-4" target="6WohnyHXYykhLWwT5x3m-23">
          <mxGeometry relative="1" as="geometry" />
        </mxCell>
        <mxCell id="6WohnyHXYykhLWwT5x3m-54" value="" style="startArrow=none;endArrow=block;exitX=0.77;exitY=1;entryX=0.5;entryY=0;rounded=0;" edge="1" parent="1" source="6WohnyHXYykhLWwT5x3m-4" target="6WohnyHXYykhLWwT5x3m-24">
          <mxGeometry relative="1" as="geometry" />
        </mxCell>
        <mxCell id="6WohnyHXYykhLWwT5x3m-55" value="" style="startArrow=none;endArrow=block;exitX=1;exitY=0.7;entryX=0.5;entryY=0;rounded=0;" edge="1" parent="1" source="6WohnyHXYykhLWwT5x3m-4" target="6WohnyHXYykhLWwT5x3m-25">
          <mxGeometry relative="1" as="geometry" />
        </mxCell>
        <mxCell id="6WohnyHXYykhLWwT5x3m-56" value="" style="startArrow=none;endArrow=block;exitX=0.12;exitY=1;entryX=0.5;entryY=0;rounded=0;" edge="1" parent="1" source="6WohnyHXYykhLWwT5x3m-22" target="6WohnyHXYykhLWwT5x3m-26">
          <mxGeometry relative="1" as="geometry" />
        </mxCell>
        <mxCell id="6WohnyHXYykhLWwT5x3m-57" value="" style="startArrow=none;endArrow=block;exitX=0.87;exitY=1;entryX=0.5;entryY=0;rounded=0;" edge="1" parent="1" source="6WohnyHXYykhLWwT5x3m-22" target="6WohnyHXYykhLWwT5x3m-27">
          <mxGeometry relative="1" as="geometry" />
        </mxCell>
        <mxCell id="6WohnyHXYykhLWwT5x3m-58" value="" style="startArrow=none;endArrow=block;exitX=0.5;exitY=1;entryX=0.5;entryY=0;rounded=0;exitDx=0;exitDy=0;" edge="1" parent="1" source="6WohnyHXYykhLWwT5x3m-24" target="6WohnyHXYykhLWwT5x3m-28">
          <mxGeometry relative="1" as="geometry" />
        </mxCell>
        <mxCell id="6WohnyHXYykhLWwT5x3m-59" value="" style="startArrow=none;endArrow=block;exitX=0.5;exitY=1;entryX=0.5;entryY=0;rounded=0;exitDx=0;exitDy=0;" edge="1" parent="1" source="6WohnyHXYykhLWwT5x3m-24" target="6WohnyHXYykhLWwT5x3m-29">
          <mxGeometry relative="1" as="geometry" />
        </mxCell>
        <mxCell id="6WohnyHXYykhLWwT5x3m-60" value="" style="startArrow=none;endArrow=block;exitX=0.804;exitY=1.091;entryX=0.5;entryY=0;rounded=0;exitDx=0;exitDy=0;exitPerimeter=0;" edge="1" parent="1" source="6WohnyHXYykhLWwT5x3m-25" target="6WohnyHXYykhLWwT5x3m-30">
          <mxGeometry relative="1" as="geometry" />
        </mxCell>
        <mxCell id="6WohnyHXYykhLWwT5x3m-61" value="" style="startArrow=none;endArrow=block;exitX=0.79;exitY=1;entryX=0.5;entryY=0;rounded=0;" edge="1" parent="1" source="6WohnyHXYykhLWwT5x3m-25" target="6WohnyHXYykhLWwT5x3m-31">
          <mxGeometry relative="1" as="geometry" />
        </mxCell>
      </root>
    </mxGraphModel>
  </diagram>
</mxfile>
